<svg width="30" height="30" viewBox="0 0 30 30" fill="none" xmlns="http://www.w3.org/2000/svg">
<path d="M26.25 9.375V7.5C26.25 6.83696 25.9866 6.20107 25.5178 5.73223C25.0489 5.26339 24.413 5 23.75 5H6.25C5.58696 5 4.95107 5.26339 4.48223 5.73223C4.01339 6.20107 3.75 6.83696 3.75 7.5V25C3.75 25.663 4.01339 26.2989 4.48223 26.7678C4.95107 27.2366 5.58696 27.5 6.25 27.5H10.625" stroke="black" stroke-linecap="round" stroke-linejoin="round"/>
<path d="M20 2.5V7.5" stroke="black" stroke-linecap="round" stroke-linejoin="round"/>
<path d="M10 2.5V7.5" stroke="black" stroke-linecap="round" stroke-linejoin="round"/>
<path d="M3.75 12.5H10" stroke="black" stroke-linecap="round" stroke-linejoin="round"/>
<path d="M21.875 21.875L20 20.3125V17.5" stroke="black" stroke-linecap="round" stroke-linejoin="round"/>
<path d="M27.5 20C27.5 21.9891 26.7098 23.8968 25.3033 25.3033C23.8968 26.7098 21.9891 27.5 20 27.5C18.0109 27.5 16.1032 26.7098 14.6967 25.3033C13.2902 23.8968 12.5 21.9891 12.5 20C12.5 18.0109 13.2902 16.1032 14.6967 14.6967C16.1032 13.2902 18.0109 12.5 20 12.5C21.9891 12.5 23.8968 13.2902 25.3033 14.6967C26.7098 16.1032 27.5 18.0109 27.5 20Z" stroke="black" stroke-linecap="round" stroke-linejoin="round"/>
</svg>
