<svg width="18" height="18" viewBox="0 0 18 18" fill="none" xmlns="http://www.w3.org/2000/svg">
<path d="M9.90001 9.0002L16.7625 2.1377C17.0156 1.88457 17.0156 1.49082 16.7625 1.2377C16.5094 0.98457 16.1156 0.98457 15.8625 1.2377L9.00001 8.10019L2.13751 1.2377C1.88439 0.98457 1.49064 0.98457 1.23751 1.2377C0.984387 1.49082 0.984387 1.88457 1.23751 2.1377L8.10001 9.0002L1.23751 15.8627C0.984387 16.1158 0.984387 16.5096 1.23751 16.7627C1.35001 16.8752 1.51876 16.9596 1.68751 16.9596C1.85626 16.9596 2.02501 16.9033 2.13751 16.7627L9.00001 9.9002L15.8625 16.7627C15.975 16.8752 16.1438 16.9596 16.3125 16.9596C16.4813 16.9596 16.65 16.9033 16.7625 16.7627C17.0156 16.5096 17.0156 16.1158 16.7625 15.8627L9.90001 9.0002Z" fill="#6B7280"/>
</svg>
