<svg width="41" height="41" viewBox="0 0 41 41" fill="none" xmlns="http://www.w3.org/2000/svg">
<circle cx="20.5" cy="20.5" r="20.5" fill="#E10E0E"/>
<g clip-path="url(#clip0_924_1116)">
<path d="M20.5 8.89062C14.081 8.89062 8.89191 14.0797 8.89191 20.4987C8.89191 26.9178 14.081 32.1453 20.5 32.1453C26.9191 32.1453 32.1466 26.9178 32.1466 20.4987C32.1466 14.0797 26.9191 8.89062 20.5 8.89062ZM20.5 30.4156C15.0419 30.4156 10.6216 25.9569 10.6216 20.4987C10.6216 15.0406 15.0419 10.6203 20.5 10.6203C25.9582 10.6203 30.4169 15.0791 30.4169 20.5372C30.4169 25.9569 25.9582 30.4156 20.5 30.4156Z" fill="white"/>
<path d="M24.0363 16.9245C23.6903 16.5786 23.1522 16.5786 22.8063 16.9245L20.5 19.2692L18.1553 16.9245C17.8094 16.5786 17.2713 16.5786 16.9253 16.9245C16.5794 17.2704 16.5794 17.8086 16.9253 18.1545L19.27 20.4992L16.9253 22.8439C16.5794 23.1898 16.5794 23.7279 16.9253 24.0739C17.0791 24.2276 17.3097 24.3429 17.5403 24.3429C17.771 24.3429 18.0016 24.2661 18.1553 24.0739L20.5 21.7292L22.8447 24.0739C22.9985 24.2276 23.2291 24.3429 23.4597 24.3429C23.6903 24.3429 23.921 24.2661 24.0747 24.0739C24.4207 23.7279 24.4207 23.1898 24.0747 22.8439L21.73 20.4992L24.0747 18.1545C24.3822 17.8086 24.3822 17.2704 24.0363 16.9245Z" fill="white"/>
</g>
<defs>
<clipPath id="clip0_924_1116">
<rect width="24.6" height="24.6" fill="white" transform="translate(8.20001 8.19922)"/>
</clipPath>
</defs>
</svg>
