<svg width="40" height="41" viewBox="0 0 40 41" fill="none" xmlns="http://www.w3.org/2000/svg">
<circle cx="20" cy="20.5" r="20" fill="#22AD5C"/>
<path d="M20 9.1748C13.7375 9.1748 8.67505 14.2373 8.67505 20.4998C8.67505 26.7623 13.7375 31.8623 20 31.8623C26.2626 31.8623 31.3625 26.7623 31.3625 20.4998C31.3625 14.2373 26.2626 9.1748 20 9.1748ZM20 30.1748C14.675 30.1748 10.3625 25.8248 10.3625 20.4998C10.3625 15.1748 14.675 10.8623 20 10.8623C25.325 10.8623 29.675 15.2123 29.675 20.5373C29.675 25.8248 25.325 30.1748 20 30.1748Z" fill="white"/>
<path d="M23.2251 17.0125L18.7626 21.3625L16.7376 19.375C16.4001 19.0375 15.8751 19.075 15.5376 19.375C15.2001 19.7125 15.2376 20.2375 15.5376 20.575L17.9376 22.9C18.1626 23.125 18.4626 23.2375 18.7626 23.2375C19.0626 23.2375 19.3626 23.125 19.5876 22.9L24.4251 18.25C24.7626 17.9125 24.7626 17.3875 24.4251 17.05C24.0876 16.7125 23.5626 16.7125 23.2251 17.0125Z" fill="white"/>
</svg>
