<svg width="30" height="30" viewBox="0 0 30 30" fill="none" xmlns="http://www.w3.org/2000/svg">
<path d="M20 26.25V23.75C20 22.4239 19.4732 21.1521 18.5355 20.2145C17.5979 19.2768 16.3261 18.75 15 18.75H7.5C6.17392 18.75 4.90215 19.2768 3.96447 20.2145C3.02678 21.1521 2.5 22.4239 2.5 23.75V26.25" stroke="black" stroke-linecap="round" stroke-linejoin="round"/>
<path d="M11.25 13.75C14.0114 13.75 16.25 11.5114 16.25 8.75C16.25 5.98858 14.0114 3.75 11.25 3.75C8.48858 3.75 6.25 5.98858 6.25 8.75C6.25 11.5114 8.48858 13.75 11.25 13.75Z" stroke="black" stroke-linecap="round" stroke-linejoin="round"/>
<path d="M27.5 26.2496V23.7496C27.4992 22.6418 27.1304 21.5656 26.4517 20.69C25.773 19.8144 24.8227 19.1891 23.75 18.9121" stroke="black" stroke-linecap="round" stroke-linejoin="round"/>
<path d="M20 3.91211C21.0755 4.18749 22.0288 4.81299 22.7095 5.69C23.3903 6.56701 23.7598 7.64565 23.7598 8.75586C23.7598 9.86607 23.3903 10.9447 22.7095 11.8217C22.0288 12.6987 21.0755 13.3242 20 13.5996" stroke="black" stroke-linecap="round" stroke-linejoin="round"/>
</svg>
