<svg width="25" height="25" viewBox="0 0 25 25" fill="none" xmlns="http://www.w3.org/2000/svg">
<rect width="25" height="25" rx="12.5" fill="#FF9900"/>
<path d="M18.2891 14.3886L13.9422 7.39434C13.5969 6.92715 13.0688 6.66309 12.5001 6.66309C11.911 6.66309 11.3829 6.92715 11.0579 7.39434L6.71099 14.3886C6.30474 14.937 6.24381 15.648 6.54849 16.2574C6.85318 16.8667 7.46256 17.2527 8.15318 17.2527H16.8469C17.5376 17.2527 18.1469 16.8667 18.4516 16.2574C18.7563 15.6683 18.6954 14.937 18.2891 14.3886ZM17.6391 15.8511C17.4766 16.1558 17.1922 16.3386 16.8469 16.3386H8.15318C7.80787 16.3386 7.52349 16.1558 7.36099 15.8511C7.21881 15.5464 7.23912 15.2011 7.44224 14.937L11.7891 7.94277C11.9516 7.71934 12.2157 7.57715 12.5001 7.57715C12.7844 7.57715 13.0485 7.69902 13.211 7.94277L17.5579 14.937C17.761 15.2011 17.7813 15.5464 17.6391 15.8511Z" fill="white"/>
<path d="M12.5 10.4414C12.2563 10.4414 12.0328 10.6445 12.0328 10.9086V13.1227C12.0328 13.3664 12.236 13.5898 12.5 13.5898C12.7641 13.5898 12.9672 13.3867 12.9672 13.1227V10.8883C12.9672 10.6445 12.7438 10.4414 12.5 10.4414Z" fill="white"/>
<path d="M12.5 14.125C12.2563 14.125 12.0328 14.3281 12.0328 14.5922V14.6938C12.0328 14.9375 12.236 15.1609 12.5 15.1609C12.7641 15.1609 12.9672 14.9578 12.9672 14.6938V14.5719C12.9672 14.3281 12.7438 14.125 12.5 14.125Z" fill="white"/>
</svg>
