<svg width="30" height="30" viewBox="0 0 30 30" fill="none" xmlns="http://www.w3.org/2000/svg">
<path d="M26.925 18.75H21.25C20.587 18.75 19.9511 19.0134 19.4822 19.4822C19.0134 19.9511 18.75 20.587 18.75 21.25V26.925" stroke="black" stroke-linecap="round" stroke-linejoin="round"/>
<path d="M8.75 4.1748V6.2498C8.75 7.24437 9.14509 8.19819 9.84835 8.90146C10.5516 9.60472 11.5054 9.99981 12.5 9.99981C13.163 9.99981 13.7989 10.2632 14.2678 10.732C14.7366 11.2009 15 11.8368 15 12.4998C15 13.8748 16.125 14.9998 17.5 14.9998C18.163 14.9998 18.7989 14.7364 19.2678 14.2676C19.7366 13.7987 20 13.1628 20 12.4998C20 11.1248 21.125 9.99981 22.5 9.99981H26.4625" stroke="black" stroke-linecap="round" stroke-linejoin="round"/>
<path d="M13.75 27.4375V22.5C13.75 21.837 13.4866 21.2011 13.0178 20.7322C12.5489 20.2634 11.913 20 11.25 20C10.587 20 9.95107 19.7366 9.48223 19.2678C9.01339 18.7989 8.75 18.163 8.75 17.5V16.25C8.75 15.587 8.48661 14.9511 8.01777 14.4822C7.54893 14.0134 6.91304 13.75 6.25 13.75H2.5625" stroke="black" stroke-linecap="round" stroke-linejoin="round"/>
<path d="M15 27.5C21.9036 27.5 27.5 21.9036 27.5 15C27.5 8.09644 21.9036 2.5 15 2.5C8.09644 2.5 2.5 8.09644 2.5 15C2.5 21.9036 8.09644 27.5 15 27.5Z" stroke="black" stroke-linecap="round" stroke-linejoin="round"/>
</svg>
